name D:\school\WTK\thesis\model\3dpredictsim\Results\debug_batch\Pog_s1_tmt_aCst_d00_k2000_ig24_act_TTC.mot
datacolumns 128
datarows 4
range 1.83987468 1.87667218
endheader
time	pelvis_tilt	pelvis_list	pelvis_rotation	pelvis_tx	pelvis_ty	pelvis_tz	hip_flexion_l	hip_adduction_l	hip_rotation_l	hip_flexion_r	hip_adduction_r	hip_rotation_r	knee_angle_l	knee_angle_r	ankle_angle_l	ankle_angle_r	subtalar_angle_l	subtalar_angle_r	tmt_angle_l	tmt_angle_r	mtp_angle_l	mtp_angle_r	lumbar_extension	lumbar_bending	lumbar_rotation	arm_flex_l	arm_add_l	arm_rot_l	arm_flex_r	arm_add_r	arm_rot_r	elbow_flex_l	elbow_flex_r	pro_sup_l	pro_sup_r	glut_med1_l/activation	glut_med2_l/activation	glut_med3_l/activation	glut_min1_l/activation	glut_min2_l/activation	glut_min3_l/activation	semimem_l/activation	semiten_l/activation	bifemlh_l/activation	bifemsh_l/activation	sar_l/activation	add_long_l/activation	add_brev_l/activation	add_mag1_l/activation	add_mag2_l/activation	add_mag3_l/activation	tfl_l/activation	pect_l/activation	grac_l/activation	glut_max1_l/activation	glut_max2_l/activation	glut_max3_l/activation	iliacus_l/activation	psoas_l/activation	quad_fem_l/activation	gem_l/activation	peri_l/activation	rect_fem_l/activation	vas_med_l/activation	vas_int_l/activation	vas_lat_l/activation	med_gas_l/activation	lat_gas_l/activation	soleus_l/activation	tib_post_l/activation	flex_dig_l/activation	flex_hal_l/activation	tib_ant_l/activation	per_brev_l/activation	per_long_l/activation	per_tert_l/activation	ext_dig_l/activation	ext_hal_l/activation	ercspn_l/activation	intobl_l/activation	extobl_l/activation	glut_med1_r/activation	glut_med2_r/activation	glut_med3_r/activation	glut_min1_r/activation	glut_min2_r/activation	glut_min3_r/activation	semimem_r/activation	semiten_r/activation	bifemlh_r/activation	bifemsh_r/activation	sar_r/activation	add_long_r/activation	add_brev_r/activation	add_mag1_r/activation	add_mag2_r/activation	add_mag3_r/activation	tfl_r/activation	pect_r/activation	grac_r/activation	glut_max1_r/activation	glut_max2_r/activation	glut_max3_r/activation	iliacus_r/activation	psoas_r/activation	quad_fem_r/activation	gem_r/activation	peri_r/activation	rect_fem_r/activation	vas_med_r/activation	vas_int_r/activation	vas_lat_r/activation	med_gas_r/activation	lat_gas_r/activation	soleus_r/activation	tib_post_r/activation	flex_dig_r/activation	flex_hal_r/activation	tib_ant_r/activation	per_brev_r/activation	per_long_r/activation	per_tert_r/activation	ext_dig_r/activation	ext_hal_r/activation	ercspn_r/activation	intobl_r/activation	extobl_r/activation	
          1.83987468	         -2.92983570	          1.42124229	         -8.43321609	          2.29984335	          0.85443023	          0.00308276	         32.89360593	          0.88430476	         -0.80200006	        -16.70469592	         -2.72058619	          7.57942503	        -15.16334607	        -15.31735620	          8.74630984	         -6.91328156	         -0.35386652	         15.35162931	          0.01077408	          0.66662848	         -0.08724270	         28.88543318	         -0.25564190	          0.95793493	          3.01929526	        -11.86724420	        -13.60115976	         11.23872708	          3.73749733	        -13.52328796	         18.14865338	         16.18645863	         43.93305787	         86.51662706	         86.51662706	          0.05000012	          0.05000015	          0.05000005	          0.06022155	          0.06022138	          0.05000156	          0.16800834	          0.05000025	          0.12104161	          0.05000040	          0.06022259	          0.10517129	          0.16091361	          0.12170999	          0.09469629	          0.12824786	          0.05000006	          0.07253348	          0.06107122	          0.05000008	          0.05000005	          0.16850295	          0.07253251	          0.05999247	          0.17994642	          0.22325373	          0.19685778	          0.06111841	          0.18583428	          0.17735560	          0.16019236	          0.05000040	          0.05000018	          0.05216576	          0.05000000	          0.05000046	          0.05000079	          0.62241443	          0.32657816	          0.18932793	          0.50759156	          0.59561040	          0.45347570	          0.05096650	          0.12447752	          0.10311653	          0.16087321	          0.07973343	          0.05924684	          0.21064385	          0.12592798	          0.08735935	          0.05000046	          0.05000007	          0.05000006	          0.05000046	          0.08792744	          0.10610806	          0.05000034	          0.05000029	          0.05000033	          0.05000010	          0.16968885	          0.10558554	          0.05812886	          0.05000100	          0.05000045	          0.05000023	          0.34327601	          0.55251523	          0.07386587	          0.05000122	          0.06944148	          0.19164686	          0.07183028	          0.09274344	          0.07155333	          0.15565197	          0.22666237	          0.05850776	          0.15510931	          0.18561835	          0.20128504	          0.05000027	          0.29521696	          0.30824034	          0.05000005	          0.25129143	          0.05000017	          0.05000004	          0.05000002	          0.05000031	
          1.85214051	         -2.92380620	          1.34376453	         -8.58718352	          2.31971551	          0.85311203	          0.00271916	         32.15778540	          1.13866915	         -0.57203781	        -16.81934810	         -2.89626452	          7.34328531	        -15.56331399	        -16.79676426	          8.05857052	         -9.67666404	         -0.74382945	         15.73384564	          0.00261778	          0.50180847	         -0.05086511	         30.35051851	          0.00560014	          0.81502588	          3.10776669	        -13.33181993	        -13.58412943	         11.13585445	          3.23396936	        -13.58344566	         18.34486532	         16.25019497	         45.17068843	         86.51662706	         86.51662706	          0.05000004	          0.05000052	          0.14817725	          0.05000007	          0.05000006	          0.05000015	          0.13949194	          0.05000013	          0.10049698	          0.05000005	          0.05000094	          0.08732043	          0.13360147	          0.27454728	          0.22877430	          0.14000676	          0.06022127	          0.06022249	          0.06021970	          0.12768108	          0.12053395	          0.13990266	          0.06022146	          0.06022152	          0.26123083	          0.18536043	          0.16344473	          0.06022163	          0.22076326	          0.22820420	          0.20048960	          0.05000001	          0.05000004	          0.05000000	          0.06022151	          0.06155694	          0.05000087	          0.58478733	          0.37883466	          0.22236843	          0.42143773	          0.57033745	          0.37650635	          0.05000000	          0.10334969	          0.08561435	          0.13356789	          0.06620015	          0.06022170	          0.17489088	          0.10455400	          0.07253173	          0.05080129	          0.05000012	          0.05000030	          0.05000003	          0.07300339	          0.19820530	          0.09290553	          0.23140372	          0.10136784	          0.12152630	          0.14088723	          0.08766448	          0.05000168	          0.06022138	          0.06022232	          0.06024819	          0.28501107	          0.45968179	          0.06212809	          0.06023160	          0.06022172	          0.15911824	          0.09186782	          0.11899853	          0.09015573	          0.12923284	          0.18819049	          0.05000000	          0.12878229	          0.15411297	          0.16712052	          0.26441396	          0.36666494	          0.30342990	          0.47736785	          0.41572445	          0.25539582	          0.07460007	          0.06022154	          0.06022158	
          1.86440634	         -2.91217802	          1.27587323	         -8.69609957	          2.33968977	          0.85159476	          0.00236630	         31.28267520	          1.36430433	         -0.31665831	        -16.72565444	         -3.03894759	          7.10644313	        -16.31929428	        -18.64533968	          7.53347551	        -12.25559927	         -1.14351592	         16.06980864	         -0.00635752	          0.35623193	         -0.19008163	         30.86624774	          0.26917516	          0.64765330	          3.17955345	        -14.73927565	        -13.57775299	         11.13041612	          2.67221979	        -13.64574660	         18.46051273	         16.25684506	         46.37604817	         86.51662706	         86.51662706	          0.26036855	          0.30391334	          0.39210025	          0.21350328	          0.22305479	          0.23174171	          0.11581571	          0.09118770	          0.09620513	          0.05000052	          0.05000031	          0.07249938	          0.11092504	          0.22794789	          0.18997188	          0.16749135	          0.05000009	          0.05000122	          0.05000049	          0.25457306	          0.20356328	          0.18352785	          0.05000003	          0.05000004	          0.23359766	          0.15389891	          0.26549788	          0.05000009	          0.18329270	          0.18947072	          0.16646013	          0.05000004	          0.05000010	          0.05000003	          0.05000003	          0.06022155	          0.06022151	          0.69128123	          0.40563940	          0.20562813	          0.68170997	          0.66410836	          0.47608878	          0.06102179	          0.08865672	          0.07108285	          0.22191715	          0.05496389	          0.05000016	          0.16517816	          0.08680788	          0.06022081	          0.07581857	          0.05433347	          0.05004612	          0.05000563	          0.06061253	          0.16456363	          0.22056845	          0.19212716	          0.08416270	          0.10089995	          0.11697417	          0.07278601	          0.05000206	          0.05000087	          0.05000093	          0.05002224	          0.23663556	          0.44419817	          0.05158298	          0.05000844	          0.05000019	          0.13211077	          0.07627492	          0.09880068	          0.07485342	          0.10729788	          0.15624853	          0.05000000	          0.10692380	          0.12795507	          0.13875482	          0.41041052	          0.43935246	          0.31598867	          0.71247960	          0.53597913	          0.36054157	          0.08389816	          0.05000002	          0.05000006	
          1.87667218	         -2.89856994	          1.21134881	         -8.75681693	          2.35934900	          0.84999103	          0.00198876	         30.42535514	          1.59478350	         -0.06098443	        -16.37709967	         -3.14697264	          6.88303726	        -17.12729178	        -20.91673748	          7.09138351	        -14.29151552	         -1.57204706	         16.36898361	         -0.00911864	          0.25983071	         -0.20320452	         29.62458194	          0.49600628	          0.46363381	          3.23288201	        -16.00206359	        -13.57925382	         11.25869190	          2.12775447	        -13.70361119	         18.51633261	         16.15931457	         47.50004735	         86.51662706	         86.51662706	          0.33556620	          0.44782183	          0.57168853	          0.24444354	          0.23157329	          0.42467286	          0.09615807	          0.09455909	          0.07987612	          0.06022168	          0.05000014	          0.06022127	          0.09209757	          0.21144782	          0.22172627	          0.18029320	          0.05000008	          0.05001711	          0.10521932	          0.32776124	          0.25521167	          0.21647397	          0.05000004	          0.05000003	          0.19394876	          0.12777740	          0.31446003	          0.05000000	          0.25155156	          0.27797830	          0.23562194	          0.05000000	          0.05000000	          0.05000000	          0.05000000	          0.05000007	          0.05000004	          0.79726644	          0.33678938	          0.17072645	          0.74472855	          0.67813971	          0.59346785	          0.08296640	          0.07360884	          0.05901781	          0.19218366	          0.05000008	          0.05000003	          0.13714234	          0.07207387	          0.05000016	          0.11175574	          0.05000009	          0.05000015	          0.05000004	          0.05032476	          0.13663201	          0.18719860	          0.15951715	          0.06987824	          0.08377471	          0.09711993	          0.06043226	          0.05000019	          0.05000125	          0.05000088	          0.05000049	          0.19647093	          0.41464124	          0.05000006	          0.05000022	          0.05000005	          0.10968733	          0.08736037	          0.08736036	          0.08046287	          0.08908599	          0.12972814	          0.05000002	          0.08877541	          0.10623702	          0.11520369	          0.36869772	          0.36478032	          0.26235557	          0.59539811	          0.69245734	          0.29934616	          0.12589307	          0.05000000	          0.05000001	
